<?xml version="1.0" ?><svg id="row1" style="enable-background:new 0 0 48 48;" version="1.1" viewBox="0 0 48 48" xml:space="preserve" xmlns="http://www.w3.org/2000/svg" xmlns:xlink="http://www.w3.org/1999/xlink"><style type="text/css">
	.st0{fill:#EA5C81;}
	.st1{fill:#00AAAD;}
	.st2{fill:#AB4A9C;}
	.st3{fill:#FFC60B;}
	.st4{fill:#F95F30;}
	.st5{fill:#B2D235;}
	.st6{fill:#99BC08;}
	.st7{fill:#FFFFFF;}
	.st8{fill:#E24A27;}
	.st9{fill:#96398B;}
	.st10{fill:#009696;}
	.st11{fill:#D3406D;}
	.st12{fill:none;stroke:#FFFFFF;stroke-miterlimit:10;}
	.st13{fill:#F2B200;}
	.st14{fill:none;}
	.st15{fill:#28B5F5;}
	.st16{fill:#03A9F4;}
	.st17{fill:none;stroke:#FFFFFF;stroke-linejoin:round;stroke-miterlimit:10;}
	.st18{fill:none;stroke:#FFFFFF;stroke-linecap:round;stroke-miterlimit:10;}
</style><circle class="st5" cx="24" cy="24" r="24"/><g id="grocery"><path class="st6" d="M24.1,48C37.3,47.9,48,37.2,48,24c0-0.4,0-0.8,0-1.3L34.2,9.1L29.9,10l-3,5.8l3.1,3.1l-0.3,0.7l-2.6-2.4   l-0.6,2.3L21,14l-0.1,0.1l-2.7-2.7l-1.9,0.4l-2,8.2l6.8,6.8L16,39.9L24.1,48z"/><polygon class="st7" points="16,40 32,40 34,21 14,21  "/><g><path class="st7" d="M21.5,15.6l-0.4-1.6l-2.5-1.4l-0.3-1c-0.1-0.5-0.7-0.8-1.2-0.7l-1.9,0.5c-0.5,0.1-0.8,0.7-0.7,1.2l0.3,1    l-1.4,2.5l1.1,3.8h4.1C18.7,18.1,19.9,16.5,21.5,15.6z"/></g><g><path class="st7" d="M28.4,20c-0.3-2.2-2.1-4-4.4-4s-4.2,1.8-4.4,4H28.4z"/></g><path class="st7" d="M32.8,8.2c-2.1-0.5-4.5,1.7-5.3,4.9l-0.7,2.7c1.5,0.9,2.5,2.4,2.6,4.2H34l1.3-5C36.1,11.8,34.9,8.7,32.8,8.2z    M32,17.5L32,17.5C32,17.6,32,17.6,32,17.5C32,17.6,32,17.6,32,17.5c-0.1,0.1-0.2-0.2-0.5-0.6c-0.3-0.4-0.7-0.8-1.2-1.1   c-0.5-0.4-1.1-0.6-1.5-0.7C28.3,15,28,15,28,15c0,0,0,0,0,0c0,0,0,0,0,0l0,0c0,0,0.3-0.3,0.9-0.4c0.3-0.1,0.6-0.1,1,0   c0.4,0.1,0.7,0.2,1,0.4c0.3,0.2,0.6,0.5,0.8,0.8c0.2,0.3,0.3,0.6,0.4,0.8C32.1,17.1,32,17.5,32,17.5z M32.9,14.7L32.9,14.7   C32.9,14.8,32.8,14.8,32.9,14.7C32.8,14.8,32.8,14.8,32.9,14.7c-0.1,0.1-0.2-0.2-0.5-0.5c-0.3-0.3-0.7-0.7-1.2-1   c-0.5-0.3-1.1-0.4-1.5-0.3C29.3,12.9,29,13,29,13c0,0,0,0-0.1,0c0,0,0,0,0,0l0,0c0,0,0.2-0.4,0.7-0.7c0.2-0.1,0.6-0.2,0.9-0.2   c0.4,0,0.7,0.1,1.1,0.3c0.3,0.2,0.6,0.4,0.8,0.7c0.2,0.3,0.3,0.5,0.4,0.8c0.1,0.2,0.1,0.5,0.1,0.6C32.9,14.6,32.9,14.7,32.9,14.7z    M33.8,12.3c0,0.2,0,0.3,0,0.3l0,0c0,0,0,0-0.1,0c0,0,0,0,0,0c0,0-0.1-0.2-0.4-0.6c-0.3-0.3-0.7-0.7-1.2-1c-0.5-0.3-1-0.3-1.4-0.2   C30.3,10.9,30,11,30,11c0,0,0,0-0.1,0c0,0,0,0,0,0l0,0c0,0,0.1-0.4,0.6-0.7c0.2-0.2,0.6-0.3,0.9-0.3c0.4,0,0.7,0.1,1.1,0.2   c0.3,0.2,0.6,0.4,0.8,0.7c0.2,0.3,0.3,0.5,0.4,0.8C33.8,11.9,33.8,12.1,33.8,12.3z"/></g></svg>
